<svg xmlns="http://www.w3.org/2000/svg" viewBox="0 0 154.84 58.14"><defs><style>.cls-1{fill:#fff;}.cls-2{fill:#eb5a0a;}.cls-3{fill:#961982;}.cls-4{fill:#96c31e;}.cls-5{fill:#e10514;}.cls-6{fill:#0069b4;}.cls-7{fill:#00a0e1;}</style></defs><g id="Corporate"><path class="cls-1" d="M10.27,62.36H161.33l-8-45.36a15.55,15.55,0,0,0-18-12.54l-116,20.46A15.56,15.56,0,0,0,6.72,42.86Z" transform="translate(-6.49 -4.22)"/><path class="cls-2" d="M57.68,31.48H50.6a1.74,1.74,0,0,0-1.73,1.74V46.43a1.74,1.74,0,0,0,1.73,1.74h7.08a1.74,1.74,0,0,0,1.73-1.74V33.22a1.74,1.74,0,0,0-1.73-1.74" transform="translate(-6.49 -4.22)"/><path class="cls-3" d="M69.44,31.48H62.37a1.74,1.74,0,0,0-1.73,1.74V46.43a1.74,1.74,0,0,0,1.73,1.74h7.07a1.74,1.74,0,0,0,1.74-1.74V33.22a1.74,1.74,0,0,0-1.74-1.74" transform="translate(-6.49 -4.22)"/><path class="cls-4" d="M102.64,31.48H95.57a1.74,1.74,0,0,0-1.74,1.74V46.43a1.74,1.74,0,0,0,1.74,1.74h7.07a1.74,1.74,0,0,0,1.73-1.74V33.22a1.74,1.74,0,0,0-1.73-1.74" transform="translate(-6.49 -4.22)"/><path class="cls-5" d="M90.87,31.48H83.8a1.74,1.74,0,0,0-1.73,1.74V46.43a1.74,1.74,0,0,0,1.73,1.74h7.07a1.74,1.74,0,0,0,1.74-1.74V33.22a1.74,1.74,0,0,0-1.74-1.74" transform="translate(-6.49 -4.22)"/><path class="cls-6" d="M114.41,31.48h-7.07a1.74,1.74,0,0,0-1.74,1.74V46.43a1.74,1.74,0,0,0,1.74,1.74h7.07a1.74,1.74,0,0,0,1.73-1.74V33.22a1.74,1.74,0,0,0-1.73-1.74" transform="translate(-6.49 -4.22)"/><path class="cls-7" d="M83.65,33.41l-6.56-2.65a1.75,1.75,0,0,0-2.26,1L69.88,44a1.75,1.75,0,0,0,1,2.27l6.56,2.65a1.73,1.73,0,0,0,2.25-1L84.6,35.68a1.75,1.75,0,0,0-.95-2.27" transform="translate(-6.49 -4.22)"/><path class="cls-1" d="M52.48,43.16a.49.49,0,0,1-.49-.49v-.19a1.85,1.85,0,0,1,.27-.91l2.15-3.32H52.72a.49.49,0,0,1-.49-.49v-.38a.49.49,0,0,1,.49-.49h3.15a.49.49,0,0,1,.49.49v.28a1.85,1.85,0,0,1-.27.91L54,41.78H55.9a.49.49,0,0,1,.49.49v.4a.49.49,0,0,1-.49.49Z" transform="translate(-6.49 -4.22)"/><path class="cls-1" d="M68.15,37.37a.63.63,0,0,1,.59-.48h.78a.39.39,0,0,1,.37.48l-1.46,5.32a.65.65,0,0,1-.62.47h-.6a.61.61,0,0,1-.6-.47l-.48-2.17a16.11,16.11,0,0,1-.3-1.69h0a14.42,14.42,0,0,1-.28,1.73L65,42.69a.61.61,0,0,1-.6.47h-.58a.65.65,0,0,1-.62-.47l-1.41-5.32a.39.39,0,0,1,.37-.48H63a.62.62,0,0,1,.59.48l.38,1.78c.11.49.22,1.46.27,2h0a13.47,13.47,0,0,1,.31-1.86L65,37.37a.62.62,0,0,1,.6-.48h.62a.62.62,0,0,1,.6.48l.48,2.05a14.34,14.34,0,0,1,.27,1.72h0a17.81,17.81,0,0,1,.26-2.09Z" transform="translate(-6.49 -4.22)"/><path class="cls-1" d="M75.34,43.16a.49.49,0,0,1-.49-.49V38.19l-.24-.06a.61.61,0,0,1-.47-.6v-.15a.49.49,0,0,1,.49-.49H76.1a.49.49,0,0,1,.49.49v5.29a.49.49,0,0,1-.49.49Zm.38-7a1,1,0,1,1,1-1.05,1,1,0,0,1-1,1.05" transform="translate(-6.49 -4.22)"/><path class="cls-1" d="M78.6,45.55a.53.53,0,0,1-.65-.3L77.84,45a.67.67,0,0,1,.21-.77c.31-.24.38-.55.38-1.23v-4.8l-.23-.06a.62.62,0,0,1-.48-.6v-.15a.49.49,0,0,1,.49-.49h1.47a.5.5,0,0,1,.5.49v5.51c0,1.47-.4,2.25-1.58,2.66m.7-9.38a1,1,0,0,1,0-2.09,1,1,0,1,1,0,2.09" transform="translate(-6.49 -4.22)"/><path class="cls-1" d="M87.27,43.32A5,5,0,0,1,85.41,43a.5.5,0,0,1-.27-.64l.17-.41a.49.49,0,0,1,.64-.25,2.59,2.59,0,0,0,1,.23c.58,0,.85-.17.85-.55s-.27-.54-1.07-.78a1.8,1.8,0,0,1-1.5-1.94c0-1.25.8-1.9,2.14-1.9a4.32,4.32,0,0,1,1.47.21.5.5,0,0,1,.31.63l-.11.35a.52.52,0,0,1-.63.32,3,3,0,0,0-.86-.12c-.38,0-.62.15-.62.49s.18.47.88.66c1,.27,1.72.65,1.72,2s-.7,2.07-2.3,2.07" transform="translate(-6.49 -4.22)"/><path class="cls-1" d="M99.52,43.32c-2.1,0-3-1-3-3.32s1-3.27,2.62-3.27c1.9,0,2.63,1,2.63,3.34v.26a.24.24,0,0,1-.23.24H98.36c.06,1.15.36,1.39,1.12,1.39a1.91,1.91,0,0,0,1-.26.53.53,0,0,1,.7.16l.21.35a.46.46,0,0,1-.14.66,3.27,3.27,0,0,1-1.7.45M99.17,38c-.56,0-.77.29-.81,1.42H100c0-1-.15-1.42-.81-1.42" transform="translate(-6.49 -4.22)"/><path class="cls-1" d="M108.9,43.16a.49.49,0,0,1-.49-.49V37.38a.49.49,0,0,1,.49-.49h.43a.64.64,0,0,1,.61.48l0,.12a2.44,2.44,0,0,1,1.77-.76c1.07,0,1.64.45,1.64,1.73v4.21a.5.5,0,0,1-.5.49h-.76a.49.49,0,0,1-.49-.49V38.85c0-.6-.22-.73-.58-.73a1.28,1.28,0,0,0-.9.37v4.18a.49.49,0,0,1-.49.49Z" transform="translate(-6.49 -4.22)"/></g></svg>